<?xml version="1.0" encoding="utf-8"?>
<!-- Generator: Adobe Illustrator 24.1.2, SVG Export Plug-In . SVG Version: 6.00 Build 0)  -->
<svg version="1.1" id="Layer_1" xmlns="http://www.w3.org/2000/svg" xmlns:xlink="https://www.w3.org/1999/xlink" x="0px" y="0px"
	 viewBox="0 0 263.37 112.94" style="enable-background:new 0 0 263.37 112.94;" xml:space="preserve">
<style type="text/css">
	.st0{fill:#FFFFFF;}
	.st1{fill:#58595B;}
	.st2{fill:#D26249;}
</style>
<g>
	<g>
		<rect x="0" y="11.26" class="st0" width="90.42" height="90.42"/>
		<g>
			<rect y="36.4" class="st1" width="90.68" height="1.91"/>
			<path class="st1" d="M72.5,53.7H50.24v38.39h-9.09V53.7H18.89v-8.18H72.5V53.7z"/>
			<rect x="0.71" y="45.52" class="st1" width="8.09" height="8.09"/>
			<rect x="82.59" y="20.85" class="st2" width="8.09" height="8.09"/>
		</g>
	</g>
	<g>
		<path class="st1" d="M122.61,42.71h-3.56v8.34h-5.85V28.22h10.9c2.77,0,4.9,0.62,6.38,1.87c1.49,1.25,2.23,3.04,2.23,5.4
			c0,1.66-0.38,3.04-1.14,4.15c-0.76,1.11-1.87,1.93-3.32,2.46l5.81,8.96h-6.57L122.61,42.71z M119.05,38.49h4.05
			c1.27,0,2.19-0.23,2.77-0.69c0.58-0.46,0.86-1.2,0.86-2.21c0-0.99-0.29-1.72-0.86-2.18c-0.58-0.46-1.5-0.69-2.77-0.69h-4.05V38.49
			z"/>
		<path class="st1" d="M151.67,44.09h-11.8c0.18,1.08,0.58,1.88,1.19,2.39c0.61,0.51,1.42,0.76,2.44,0.76
			c0.85,0,1.55-0.16,2.09-0.48c0.54-0.32,0.9-0.8,1.09-1.42l4.77,1.52c-0.48,1.48-1.42,2.6-2.82,3.37c-1.4,0.77-3.11,1.16-5.14,1.16
			c-3.02,0-5.33-0.78-6.94-2.35c-1.6-1.57-2.4-3.78-2.4-6.64c0-2.86,0.78-5.07,2.35-6.64c1.57-1.57,3.79-2.35,6.68-2.35
			c2.79,0,4.93,0.77,6.42,2.3s2.23,3.68,2.23,6.45C151.84,42.94,151.79,43.59,151.67,44.09z M139.84,40.91h6.5
			c-0.28-2.26-1.34-3.39-3.18-3.39C141.29,37.52,140.19,38.65,139.84,40.91z"/>
		<path class="st1" d="M153.16,48.35l3.04-3.32c0.99,1.64,2.7,2.46,5.12,2.46c0.81,0,1.44-0.11,1.9-0.33
			c0.46-0.22,0.69-0.51,0.69-0.88c0-0.32-0.24-0.61-0.71-0.85c-0.47-0.24-1.29-0.48-2.44-0.71c-2.58-0.51-4.42-1.2-5.52-2.08
			c-1.1-0.88-1.64-2.04-1.64-3.49c0-0.99,0.31-1.93,0.93-2.8s1.56-1.59,2.82-2.13c1.26-0.54,2.78-0.81,4.58-0.81
			c1.98,0,3.6,0.27,4.86,0.81c1.26,0.54,2.28,1.35,3.06,2.44l-3.04,2.98c-0.55-0.81-1.21-1.4-1.97-1.76
			c-0.76-0.37-1.67-0.55-2.73-0.55c-0.83,0-1.48,0.13-1.94,0.38c-0.46,0.25-0.69,0.56-0.69,0.93c0,0.35,0.24,0.64,0.71,0.88
			s1.3,0.48,2.47,0.71c2.54,0.44,4.36,1.09,5.48,1.95c1.12,0.86,1.68,2.05,1.68,3.55c0,1.68-0.7,3.05-2.11,4.1
			c-1.41,1.05-3.45,1.57-6.12,1.57C157.63,51.39,154.82,50.38,153.16,48.35z"/>
		<path class="st1" d="M189.45,44.09h-11.8c0.18,1.08,0.58,1.88,1.19,2.39c0.61,0.51,1.42,0.76,2.44,0.76
			c0.85,0,1.55-0.16,2.09-0.48c0.54-0.32,0.9-0.8,1.09-1.42l4.77,1.52c-0.48,1.48-1.42,2.6-2.82,3.37c-1.4,0.77-3.11,1.16-5.14,1.16
			c-3.02,0-5.33-0.78-6.94-2.35c-1.6-1.57-2.4-3.78-2.4-6.64c0-2.86,0.78-5.07,2.35-6.64c1.57-1.57,3.79-2.35,6.68-2.35
			c2.79,0,4.93,0.77,6.42,2.3s2.23,3.68,2.23,6.45C189.62,42.94,189.56,43.59,189.45,44.09z M177.62,40.91h6.5
			c-0.28-2.26-1.34-3.39-3.18-3.39C179.07,37.52,177.96,38.65,177.62,40.91z"/>
		<path class="st1" d="M210.69,47.55l-0.45,3.29c-0.67,0.37-1.45,0.55-2.35,0.55c-2.49,0-3.98-0.89-4.46-2.66
			c-1.04,1.78-3.09,2.66-6.16,2.66c-1.73,0-3.06-0.37-3.98-1.11c-0.92-0.74-1.38-1.81-1.38-3.22c0-1.48,0.52-2.67,1.57-3.58
			c1.05-0.91,2.77-1.61,5.17-2.09l3.91-0.76v-0.62c0-0.78-0.22-1.41-0.66-1.87s-1.04-0.69-1.8-0.69c-0.88,0-1.59,0.21-2.15,0.62
			c-0.55,0.42-0.91,1.1-1.07,2.04l-4.77-1.38c0.3-1.68,1.13-2.99,2.49-3.93c1.36-0.93,3.19-1.4,5.5-1.4c2.7,0,4.75,0.55,6.16,1.66
			c1.41,1.11,2.11,2.77,2.11,4.98v6.3c0,0.9,0.42,1.35,1.25,1.35C210.05,47.69,210.41,47.64,210.69,47.55z M201.59,46.91
			c0.65-0.45,0.97-1.04,0.97-1.78v-1.49l-2.8,0.66c-0.74,0.19-1.26,0.41-1.57,0.67c-0.31,0.27-0.47,0.64-0.47,1.12
			s0.15,0.85,0.45,1.11c0.3,0.25,0.71,0.38,1.25,0.38C200.22,47.59,200.94,47.36,201.59,46.91z"/>
		<path class="st1" d="M225.56,33.78l-0.62,4.98c-0.23-0.14-0.54-0.26-0.93-0.36c-0.39-0.1-0.81-0.16-1.25-0.16
			c-1.11,0-2.03,0.35-2.77,1.06c-0.74,0.7-1.11,1.71-1.11,3.03v8.72H213v-17.3h5.19l0.24,3.74c0.42-1.31,1.07-2.32,1.95-3.03
			c0.89-0.7,1.99-1.05,3.3-1.05C224.48,33.4,225.1,33.53,225.56,33.78z"/>
		<path class="st1" d="M241.13,34.89c1.31,0.99,2.13,2.28,2.46,3.87l-5.47,1.8c-0.23-1.98-1.12-2.98-2.66-2.98
			c-2.28,0-3.42,1.63-3.42,4.88c0,3.16,1.14,4.74,3.42,4.74c1.64,0,2.59-0.93,2.87-2.8l5.29,1.69c-0.25,1.57-1.09,2.84-2.51,3.82
			c-1.42,0.98-3.29,1.47-5.62,1.47c-3,0-5.3-0.78-6.92-2.35c-1.61-1.57-2.42-3.78-2.42-6.64c0-2.84,0.8-5.04,2.4-6.62
			c1.6-1.58,3.83-2.37,6.69-2.37C237.85,33.4,239.81,33.9,241.13,34.89z"/>
		<path class="st1" d="M261.74,35c1.08,1.06,1.63,2.57,1.63,4.53v11.52h-5.88v-9.89c0-2.19-0.82-3.29-2.46-3.29
			c-0.92,0-1.67,0.33-2.25,1c-0.58,0.67-0.87,1.7-0.87,3.08v9.1h-5.88V26.42h5.88V36.9c0.51-1.15,1.23-2.02,2.16-2.61
			c0.93-0.59,2.04-0.88,3.3-0.88C259.21,33.4,260.66,33.93,261.74,35z"/>
		<path class="st1" d="M132.37,88.39c-1.29,0-2.38-0.14-3.27-0.42c-0.89-0.28-1.87-0.85-2.96-1.73c-0.78,0.69-1.74,1.22-2.85,1.59
			s-2.36,0.55-3.72,0.55c-2.4,0-4.33-0.54-5.79-1.63c-1.46-1.08-2.21-2.61-2.23-4.57c0-1.25,0.36-2.43,1.07-3.55
			c0.71-1.12,1.91-1.99,3.6-2.61c-0.92-1.11-1.54-2.05-1.87-2.82c-0.32-0.77-0.48-1.62-0.48-2.54c0-0.99,0.26-1.93,0.78-2.82
			s1.3-1.61,2.33-2.16c1.04-0.55,2.32-0.83,3.84-0.83c2.19,0,3.88,0.51,5.07,1.52c1.19,1.01,1.78,2.31,1.78,3.87
			c0,2.84-1.65,4.92-4.95,6.26c0.71,0.78,1.26,1.38,1.63,1.8l2.32,2.49c0.6-1.29,0.86-2.79,0.8-4.5l3.91,0.1
			c0,2.7-0.74,4.96-2.21,6.78c0.51,0.39,0.99,0.67,1.45,0.85c0.46,0.17,0.96,0.26,1.49,0.26c0.35,0,0.61-0.01,0.8-0.03L132.37,88.39
			z M123.51,83.83l-2.01-2.08c-1.38-1.43-2.39-2.48-3.01-3.15c-0.74,0.55-1.24,1.07-1.5,1.54s-0.4,1.02-0.4,1.64
			c0,0.81,0.33,1.46,0.99,1.97c0.66,0.51,1.52,0.76,2.58,0.76C121.36,84.52,122.48,84.29,123.51,83.83z M119.43,69.31
			c-0.37,0.38-0.55,0.91-0.55,1.57c0,0.46,0.12,0.92,0.36,1.38c0.24,0.46,0.73,1.13,1.47,2.01c0.92-0.65,1.53-1.25,1.83-1.8
			c0.3-0.55,0.45-1.18,0.45-1.87c0-0.6-0.18-1.06-0.54-1.38c-0.36-0.32-0.86-0.48-1.5-0.48C120.31,68.74,119.8,68.93,119.43,69.31z"
			/>
		<path class="st1" d="M157.81,68.17c1.9,1.97,2.85,4.79,2.85,8.46s-0.95,6.49-2.85,8.46c-1.9,1.97-4.64,2.96-8.22,2.96h-9.69V65.22
			h9.69C153.17,65.22,155.91,66.2,157.81,68.17z M153.23,81.82c0.9-1.15,1.35-2.88,1.35-5.19c0-2.31-0.45-4.04-1.35-5.19
			c-0.9-1.15-2.31-1.73-4.22-1.73h-3.15v13.84h3.15C150.92,83.55,152.33,82.97,153.23,81.82z"/>
		<path class="st1" d="M179.62,81.09h-11.8c0.18,1.08,0.58,1.88,1.19,2.39c0.61,0.51,1.42,0.76,2.44,0.76
			c0.85,0,1.55-0.16,2.09-0.48c0.54-0.32,0.9-0.8,1.09-1.42l4.77,1.52c-0.48,1.48-1.42,2.6-2.82,3.37c-1.4,0.77-3.11,1.16-5.14,1.16
			c-3.02,0-5.33-0.78-6.94-2.35c-1.6-1.57-2.4-3.78-2.4-6.64c0-2.86,0.78-5.07,2.35-6.64c1.57-1.57,3.79-2.35,6.68-2.35
			c2.79,0,4.93,0.77,6.42,2.3s2.23,3.68,2.23,6.45C179.8,79.94,179.74,80.59,179.62,81.09z M167.79,77.91h6.5
			c-0.28-2.26-1.34-3.39-3.18-3.39C169.24,74.52,168.14,75.65,167.79,77.91z"/>
		<path class="st1" d="M181.8,85.35l3.04-3.32c0.99,1.64,2.7,2.46,5.12,2.46c0.81,0,1.44-0.11,1.9-0.33
			c0.46-0.22,0.69-0.51,0.69-0.88c0-0.32-0.24-0.61-0.71-0.85c-0.47-0.24-1.29-0.48-2.44-0.71c-2.58-0.51-4.42-1.2-5.52-2.08
			c-1.1-0.88-1.64-2.04-1.64-3.49c0-0.99,0.31-1.93,0.93-2.8s1.56-1.59,2.82-2.13c1.26-0.54,2.78-0.81,4.58-0.81
			c1.98,0,3.6,0.27,4.86,0.81c1.26,0.54,2.28,1.35,3.06,2.44l-3.04,2.98c-0.55-0.81-1.21-1.4-1.97-1.76
			c-0.76-0.37-1.67-0.55-2.73-0.55c-0.83,0-1.48,0.13-1.94,0.38c-0.46,0.25-0.69,0.56-0.69,0.93c0,0.35,0.24,0.64,0.71,0.88
			s1.3,0.48,2.47,0.71c2.54,0.44,4.36,1.09,5.48,1.95c1.12,0.86,1.68,2.05,1.68,3.55c0,1.68-0.7,3.05-2.11,4.1
			c-1.41,1.05-3.45,1.57-6.12,1.57C186.28,88.39,183.46,87.38,181.8,85.35z"/>
		<path class="st1" d="M201.16,68.07c-0.54-0.45-0.81-1.16-0.81-2.13c0-0.99,0.27-1.71,0.81-2.16c0.54-0.45,1.41-0.67,2.61-0.67
			s2.07,0.23,2.61,0.67s0.81,1.17,0.81,2.16c0,0.97-0.27,1.68-0.81,2.13s-1.41,0.67-2.61,0.67S201.7,68.52,201.16,68.07z
			 M206.71,88.05h-5.88v-17.3h5.88V88.05z"/>
		<path class="st1" d="M225.82,85.52c1.1,0.88,1.64,2.17,1.64,3.87c0,1.96-0.87,3.46-2.61,4.51c-1.74,1.05-4.11,1.57-7.11,1.57
			c-3.02,0-5.25-0.36-6.69-1.07c-1.44-0.72-2.16-1.72-2.16-3.01c0-0.76,0.27-1.43,0.8-2.01c0.53-0.58,1.34-0.99,2.42-1.25
			c-1.78-0.76-2.66-1.96-2.66-3.6c0-0.81,0.25-1.52,0.76-2.15c0.51-0.62,1.2-1.08,2.08-1.38c-1.89-1.01-2.84-2.59-2.84-4.74
			c0-1.87,0.74-3.31,2.21-4.34c1.48-1.03,3.55-1.54,6.23-1.54c1.25,0,2.4,0.13,3.46,0.38c0.23-1.38,0.75-2.51,1.56-3.39
			c0.81-0.88,1.93-1.31,3.36-1.31l0.55,0.03l0.66,3.91c-0.46-0.05-0.78-0.07-0.97-0.07c-0.78,0-1.44,0.14-1.95,0.42
			s-0.89,0.66-1.12,1.14c1.94,1.02,2.91,2.61,2.91,4.77c0,1.87-0.74,3.31-2.21,4.32c-1.48,1.02-3.55,1.52-6.23,1.52
			c-1.25,0-2.35-0.1-3.32-0.31c-0.71,0.18-1.07,0.59-1.07,1.21c0,0.78,0.6,1.18,1.8,1.18h5.88
			C223.17,84.21,224.72,84.64,225.82,85.52z M221.63,91.21c0.8-0.31,1.19-0.72,1.19-1.23c0-0.37-0.16-0.65-0.48-0.83
			c-0.32-0.19-0.86-0.28-1.63-0.28h-4.74c-0.95,0-1.62,0.1-2.02,0.29c-0.4,0.2-0.6,0.5-0.6,0.92c0,1.06,1.6,1.59,4.81,1.59
			C219.68,91.68,220.84,91.52,221.63,91.21z M216.03,74.45c-0.47,0.46-0.71,1.07-0.71,1.83c0,0.76,0.24,1.37,0.71,1.82
			s1.09,0.67,1.85,0.67c0.76,0,1.38-0.22,1.85-0.67c0.47-0.45,0.71-1.06,0.71-1.82c0-0.76-0.24-1.37-0.71-1.83
			c-0.47-0.46-1.09-0.69-1.85-0.69C217.12,73.76,216.5,73.99,216.03,74.45z"/>
		<path class="st1" d="M244.79,72c1.08,1.06,1.63,2.57,1.63,4.53v11.52h-5.88v-9.89c0-1.18-0.21-2.01-0.64-2.51
			c-0.43-0.5-1.03-0.74-1.82-0.74c-0.92,0-1.67,0.33-2.25,0.99c-0.58,0.66-0.87,1.67-0.87,3.03v9.13h-5.88v-17.3h5.26l0.17,3.32
			c0.55-1.22,1.34-2.14,2.35-2.75c1.01-0.61,2.2-0.92,3.56-0.92C242.26,70.4,243.71,70.93,244.79,72z"/>
	</g>
</g>
</svg>
