<svg id="Layer_1" data-name="Layer 1" xmlns="http://www.w3.org/2000/svg" viewBox="0 0 502.02 82.64"><defs><style>.cls-1{fill:none;stroke:#58595b;stroke-miterlimit:10;stroke-width:0.86px;}.cls-2{fill:#58595b;}.cls-3{fill:#d26249;}</style></defs><line class="cls-1" y1="18.71" x2="502.02" y2="18.71"/><path class="cls-2" d="M82.18,37.23H56.94V80.75H46.65V37.23H21.41V28H82.18Z"/><path class="cls-2" d="M181.22,80.75h-11.8L155.6,61.35H129.38v19.4h-10.3V28h42.66q8.41,0,13.39,4.54t5,12.19q0,13.14-13.14,16Zm-21-28.67q9.35,0,9.35-7.21,0-7.63-10-7.64H129.38V52.08Z"/><path class="cls-2" d="M287.38,60.67q0,9.69-9.44,15.7-9.62,6.27-25.66,6.27t-25.84-6.27Q217,70.28,217,60.67V28.25h10.13l.17,29.93a12.28,12.28,0,0,0,6.4,11.15q6.39,3.87,18.58,3.87t18.49-3.87a12.32,12.32,0,0,0,6.31-11.15V28.25h10.3Z"/><path class="cls-2" d="M380.63,42.26c-6.87-3.6-20.56-7.62-28.63-7.62q-17.6,0-17.6,6.27,0,3.69,6.61,4.81,9,.77,18,1.63,13,1.29,18.45,4.63,6.09,3.69,6.09,11.25,0,8.49-7.59,13.13T354,81q-20.34,0-32.53-9.27L327,64.43q10.91,7.63,26.78,7.64,8.93,0,13.82-2.28t4.89-6.05c0-2.8-2-4.78-6-5.92a50.68,50.68,0,0,0-10.38-1.29q-11-.51-13.48-.77-9.78-.94-14.42-4.21T323.59,42q0-7.56,7.42-12t20.82-4.42q17.85,0,28.92,7.73Z"/><path class="cls-2" d="M478.3,43c-6.87-3.61-20.79-8.33-28.86-8.33q-17.6,0-17.59,6.27,0,3.69,6.61,4.81,9,.77,18,1.63,13,1.29,18.45,4.63,6.1,3.69,6.1,11.25,0,8.49-7.6,13.13t-22,4.63q-20.34,0-32.53-9.27l5.58-7.29q10.89,7.63,26.78,7.64,8.92,0,13.81-2.28c3.26-1.51,4.9-3.53,4.9-6.05,0-2.8-2-4.78-6-5.92a50.8,50.8,0,0,0-10.39-1.29q-11-.51-13.47-.77-9.79-.94-14.42-4.21T421,42q0-7.56,7.43-12t20.81-4.42q17.85,0,28.93,7.73Z"/><rect class="cls-2" x="0.8" y="27.97" width="9.17" height="9.17"/><rect class="cls-3" x="492.6" width="9.17" height="9.17"/></svg>